%
M48
M72
T40C0.0400
T47C0.0470
T59C0.0590
%
T40
X12000Y1000
X13000Y1000
X14000Y1000
X15000Y1000
X16000Y1000
X17000Y1000
X19000Y1000
X20000Y1000
X21000Y1000
X22000Y1000
X23000Y1000
X24000Y1000
X25000Y1000
X26000Y1000
X28000Y1000
X29000Y1000
X30000Y1000
X31000Y1000
X32000Y1000
X33000Y1000
X34000Y1000
X35000Y1000
X36000Y3000
X37000Y3000
X37000Y4000
X36000Y4000
X36000Y5000
X37000Y5000
X37000Y6000
X36000Y6000
X36000Y7000
X37000Y7000
X37000Y8000
X36000Y8000
X36000Y9000
X37000Y9000
X37000Y10000
X36000Y10000
X36000Y11000
X37000Y11000
X37000Y12000
X36000Y12000
X36000Y13000
X37000Y13000
X37000Y14000
X36000Y14000
X36000Y15000
X37000Y15000
X37000Y16000
X36000Y16000
X36000Y17000
X37000Y17000
X37000Y18000
X36000Y18000
X36000Y19000
X37000Y19000
X37000Y20000
X36000Y20000
X33000Y20000
X32000Y20000
X31000Y20000
X30000Y20000
X29000Y20000
X28000Y20000
X27000Y20000
X26000Y20000
X24000Y20000
X23000Y20000
X22000Y20000
X21000Y20000
X20000Y20000
X19000Y20000
X18000Y20000
X17000Y20000
X15400Y20000
X14400Y20000
X13400Y20000
X12400Y20000
X11400Y20000
X10400Y20000
X9400Y20000
X8400Y20000
T47
X19000Y17500
X20000Y17500
X21000Y17500
X22000Y17500
X33500Y17000
X33500Y16000
X33500Y15000
X33500Y14000
X33500Y13000
X33500Y12000
X33500Y11000
X33500Y10000
X33500Y9000
X33500Y8000
X39500Y8000
X39500Y9000
X39500Y10000
X39500Y11000
X39500Y12000
X39500Y13000
X39500Y14000
X39500Y15000
X39500Y16500
X39500Y17500
X39500Y19000
X39500Y20000
X33500Y19000
X33500Y18000
X8000Y11000
X8000Y10000
X8000Y9000
X8000Y8000
X8000Y7000
X8000Y6000
X12000Y3500
X13000Y3500
X14000Y3500
X15000Y3500
X21000Y3500
X22000Y3500
X23000Y3500
X24000Y3500
T59
X8000Y0
X8000Y3000
M30
