G75*
%MOIN*%
%OFA0B0*%
%FSLAX24Y24*%
%IPPOS*%
%LPD*%
%AMOC8*
5,1,8,0,0,1.08239X$1,22.5*
%
%ADD10C,0.0100*%
%ADD11C,0.0060*%
%ADD12C,0.0040*%
%ADD13C,0.0080*%
%ADD14C,0.0120*%
%ADD15C,0.0090*%
%ADD16C,0.0050*%
D10*
X009250Y000000D02*
X009750Y000000D01*
X009500Y000250D02*
X009500Y-000250D01*
X009500Y002750D02*
X009500Y003250D01*
X011449Y002929D02*
X015551Y002929D01*
X015551Y004071D01*
X011449Y004071D01*
X011449Y002929D01*
X008571Y005449D02*
X007429Y005449D01*
X007429Y011551D01*
X008571Y011551D01*
X008571Y005449D01*
X020449Y004071D02*
X020449Y002929D01*
X024551Y002929D01*
X024551Y004071D01*
X020449Y004071D01*
X032929Y007449D02*
X034071Y007449D01*
X034071Y011551D01*
X032929Y011551D01*
X032929Y007449D01*
X038929Y007449D02*
X040071Y007449D01*
X040071Y011551D01*
X038929Y011551D01*
X038929Y007449D01*
X038929Y011449D02*
X040071Y011449D01*
X040071Y015551D01*
X038929Y015551D01*
X038929Y011449D01*
X034071Y011449D02*
X034071Y015551D01*
X032929Y015551D01*
X032929Y011449D01*
X034071Y011449D01*
X034071Y015449D02*
X032929Y015449D01*
X032929Y019551D01*
X034071Y019551D01*
X034071Y015449D01*
X038929Y015949D02*
X040071Y015949D01*
X040071Y018051D01*
X038929Y018051D01*
X038929Y015949D01*
X038929Y018449D02*
X040071Y018449D01*
X040071Y020551D01*
X038929Y020551D01*
X038929Y018449D01*
X022551Y018071D02*
X022551Y016929D01*
X018449Y016929D01*
X018449Y018071D01*
X022551Y018071D01*
D11*
X007000Y003700D02*
X007000Y-000700D01*
X007300Y-001000D01*
X008700Y-001000D01*
X009000Y-000700D01*
X011830Y001840D02*
X011830Y002010D01*
X011886Y002067D01*
X012000Y002067D01*
X012057Y002010D01*
X012057Y001840D01*
X012170Y001840D02*
X011830Y001840D01*
X012057Y001953D02*
X012170Y002067D01*
X012170Y002208D02*
X011830Y002208D01*
X011830Y002435D01*
X011886Y002577D02*
X011943Y002577D01*
X012000Y002633D01*
X012000Y002747D01*
X012057Y002803D01*
X012113Y002803D01*
X012170Y002747D01*
X012170Y002633D01*
X012113Y002577D01*
X012170Y002435D02*
X012170Y002208D01*
X012000Y002208D02*
X012000Y002322D01*
X011886Y002577D02*
X011830Y002633D01*
X011830Y002747D01*
X011886Y002803D01*
X011830Y002945D02*
X012170Y002945D01*
X012170Y003172D01*
X012000Y003058D02*
X012000Y002945D01*
X011830Y002945D02*
X011830Y003172D01*
X011830Y003313D02*
X011830Y003540D01*
X011830Y003427D02*
X012170Y003427D01*
X011492Y003067D02*
X015508Y003067D01*
X015830Y002747D02*
X015830Y002577D01*
X016170Y002577D01*
X016170Y002747D01*
X016113Y002803D01*
X015886Y002803D01*
X015830Y002747D01*
X015830Y002435D02*
X016170Y002435D01*
X015830Y002208D01*
X016170Y002208D01*
X016113Y002067D02*
X016000Y002067D01*
X016000Y001953D01*
X016113Y001840D02*
X015886Y001840D01*
X015830Y001897D01*
X015830Y002010D01*
X015886Y002067D01*
X016113Y002067D02*
X016170Y002010D01*
X016170Y001897D01*
X016113Y001840D01*
X016830Y001840D02*
X017057Y001840D01*
X017170Y001953D01*
X017057Y002067D01*
X016830Y002067D01*
X016943Y002208D02*
X016943Y002265D01*
X017170Y002265D01*
X017170Y002208D02*
X017170Y002322D01*
X017170Y002454D02*
X016943Y002454D01*
X016943Y002624D01*
X017000Y002681D01*
X017170Y002681D01*
X016830Y002265D02*
X016773Y002265D01*
X015170Y002208D02*
X014830Y002208D01*
X015170Y002435D01*
X014830Y002435D01*
X014830Y002577D02*
X014830Y002747D01*
X014886Y002803D01*
X015113Y002803D01*
X015170Y002747D01*
X015170Y002577D01*
X014830Y002577D01*
X014886Y002067D02*
X014830Y002010D01*
X014830Y001897D01*
X014886Y001840D01*
X015113Y001840D01*
X015170Y001897D01*
X015170Y002010D01*
X015113Y002067D01*
X015000Y002067D01*
X015000Y001953D01*
X014170Y001897D02*
X014113Y001840D01*
X014170Y001897D02*
X014170Y002010D01*
X014113Y002067D01*
X014000Y002067D01*
X013943Y002010D01*
X013943Y001953D01*
X014000Y001840D01*
X013830Y001840D01*
X013830Y002067D01*
X013830Y002208D02*
X014057Y002208D01*
X014170Y002322D01*
X014057Y002435D01*
X013830Y002435D01*
X013170Y002322D02*
X013057Y002435D01*
X012830Y002435D01*
X012830Y002208D02*
X013057Y002208D01*
X013170Y002322D01*
X013113Y002067D02*
X013170Y002010D01*
X013170Y001897D01*
X013113Y001840D01*
X013000Y001840D02*
X012943Y001953D01*
X012943Y002010D01*
X013000Y002067D01*
X013113Y002067D01*
X013000Y001840D02*
X012830Y001840D01*
X012830Y002067D01*
X009000Y003700D02*
X008700Y004000D01*
X007300Y004000D01*
X007000Y003700D01*
X008433Y005492D02*
X008433Y011508D01*
X018492Y017067D02*
X022508Y017067D01*
X022780Y017057D02*
X022780Y016830D01*
X022780Y016943D02*
X023120Y016943D01*
X023120Y017198D02*
X022780Y017425D01*
X022836Y017567D02*
X022780Y017623D01*
X022780Y017737D01*
X022836Y017793D01*
X023063Y017567D01*
X023120Y017623D01*
X023120Y017737D01*
X023063Y017793D01*
X022836Y017793D01*
X022836Y017567D02*
X023063Y017567D01*
X023120Y017425D02*
X022780Y017198D01*
X023780Y017198D02*
X024120Y017425D01*
X024063Y017567D02*
X023836Y017793D01*
X024063Y017793D01*
X024120Y017737D01*
X024120Y017623D01*
X024063Y017567D01*
X023836Y017567D01*
X023780Y017623D01*
X023780Y017737D01*
X023836Y017793D01*
X023780Y017425D02*
X024120Y017198D01*
X024120Y017057D02*
X024007Y016943D01*
X024007Y017000D02*
X024007Y016830D01*
X024120Y016830D02*
X023780Y016830D01*
X023780Y017000D01*
X023836Y017057D01*
X023950Y017057D01*
X024007Y017000D01*
X025780Y016943D02*
X026120Y016943D01*
X026120Y017198D02*
X025780Y017425D01*
X025836Y017567D02*
X025780Y017623D01*
X025780Y017737D01*
X025836Y017793D01*
X025893Y017793D01*
X025950Y017737D01*
X026007Y017793D01*
X026063Y017793D01*
X026120Y017737D01*
X026120Y017623D01*
X026063Y017567D01*
X026120Y017425D02*
X025780Y017198D01*
X025780Y017057D02*
X025780Y016830D01*
X026780Y016830D02*
X026780Y017000D01*
X026836Y017057D01*
X026950Y017057D01*
X027007Y017000D01*
X027007Y016830D01*
X027120Y016830D02*
X026780Y016830D01*
X027007Y016943D02*
X027120Y017057D01*
X027120Y017198D02*
X026780Y017425D01*
X026836Y017567D02*
X026780Y017623D01*
X026780Y017737D01*
X026836Y017793D01*
X026893Y017793D01*
X026950Y017737D01*
X027007Y017793D01*
X027063Y017793D01*
X027120Y017737D01*
X027120Y017623D01*
X027063Y017567D01*
X027120Y017425D02*
X026780Y017198D01*
X026950Y017680D02*
X026950Y017737D01*
X027780Y017737D02*
X027780Y017623D01*
X027836Y017567D01*
X027780Y017425D02*
X028120Y017198D01*
X028120Y017425D02*
X027780Y017198D01*
X027780Y017057D02*
X027780Y016830D01*
X027780Y016943D02*
X028120Y016943D01*
X028120Y017567D02*
X027893Y017793D01*
X027836Y017793D01*
X027780Y017737D01*
X028120Y017793D02*
X028120Y017567D01*
X028780Y017623D02*
X028836Y017567D01*
X028780Y017623D02*
X028780Y017737D01*
X028836Y017793D01*
X028893Y017793D01*
X029120Y017567D01*
X029120Y017793D01*
X029120Y017425D02*
X028780Y017198D01*
X028836Y017057D02*
X028950Y017057D01*
X029007Y017000D01*
X029007Y016830D01*
X029120Y016830D02*
X028780Y016830D01*
X028780Y017000D01*
X028836Y017057D01*
X029007Y016943D02*
X029120Y017057D01*
X029120Y017198D02*
X028780Y017425D01*
X029780Y017425D02*
X030120Y017198D01*
X030120Y017425D02*
X029780Y017198D01*
X029780Y017057D02*
X029780Y016830D01*
X029780Y016943D02*
X030120Y016943D01*
X030780Y017000D02*
X030780Y016830D01*
X031120Y016830D01*
X031007Y016830D02*
X031007Y017000D01*
X030950Y017057D01*
X030836Y017057D01*
X030780Y017000D01*
X030780Y017198D02*
X031120Y017425D01*
X031120Y017567D02*
X031120Y017793D01*
X031120Y017680D02*
X030780Y017680D01*
X030893Y017567D01*
X030780Y017425D02*
X031120Y017198D01*
X031120Y017057D02*
X031007Y016943D01*
X031780Y016887D02*
X031836Y016830D01*
X031893Y016830D01*
X031950Y016887D01*
X031950Y017000D01*
X032007Y017057D01*
X032063Y017057D01*
X032120Y017000D01*
X032120Y016887D01*
X032063Y016830D01*
X031780Y016887D02*
X031780Y017000D01*
X031836Y017057D01*
X031780Y017198D02*
X031780Y017368D01*
X031836Y017425D01*
X032063Y017425D01*
X032120Y017368D01*
X032120Y017198D01*
X031780Y017198D01*
X031893Y017567D02*
X031780Y017680D01*
X031893Y017793D01*
X032120Y017793D01*
X031950Y017793D02*
X031950Y017567D01*
X031893Y017567D02*
X032120Y017567D01*
X032780Y017567D02*
X033120Y017567D01*
X033120Y017793D01*
X033063Y017425D02*
X033120Y017368D01*
X033120Y017255D01*
X033063Y017198D01*
X032836Y017198D01*
X032780Y017255D01*
X032780Y017368D01*
X032836Y017425D01*
X032836Y017057D02*
X032780Y017000D01*
X032780Y016887D01*
X032836Y016830D01*
X032893Y016830D01*
X032950Y016887D01*
X032950Y017000D01*
X033007Y017057D01*
X033063Y017057D01*
X033120Y017000D01*
X033120Y016887D01*
X033063Y016830D01*
X033933Y015508D02*
X033933Y011492D01*
X033933Y011508D02*
X033933Y007492D01*
X035500Y007250D02*
X035500Y006750D01*
X035750Y006500D01*
X037250Y006500D01*
X037500Y006750D01*
X037500Y007250D01*
X037250Y007500D01*
X035750Y007500D01*
X035500Y007750D01*
X035500Y008250D01*
X035750Y008500D01*
X037250Y008500D01*
X037500Y008750D01*
X037500Y009250D01*
X037250Y009500D01*
X035750Y009500D01*
X035500Y009750D01*
X035500Y010250D01*
X035750Y010500D01*
X037250Y010500D01*
X037500Y010250D01*
X037500Y009750D01*
X037250Y009500D01*
X035750Y009500D02*
X035500Y009250D01*
X035500Y008750D01*
X035750Y008500D01*
X037250Y008500D02*
X037500Y008250D01*
X037500Y007750D01*
X037250Y007500D01*
X035750Y007500D02*
X035500Y007250D01*
X035750Y006500D02*
X035500Y006250D01*
X035500Y005750D01*
X035750Y005500D01*
X037250Y005500D01*
X037500Y005750D01*
X037500Y006250D01*
X037250Y006500D01*
X037250Y005500D02*
X037500Y005250D01*
X037500Y004750D01*
X037250Y004500D01*
X035750Y004500D01*
X035500Y004750D01*
X035500Y005250D01*
X035750Y005500D01*
X035750Y004500D02*
X035500Y004250D01*
X035500Y003750D01*
X035750Y003500D01*
X037250Y003500D02*
X037500Y003750D01*
X037500Y004250D01*
X037250Y004500D01*
X037837Y003080D02*
X037780Y003024D01*
X037780Y002797D01*
X037837Y002740D01*
X037950Y002740D01*
X038007Y002797D01*
X038007Y002910D01*
X037893Y002910D01*
X038007Y003024D02*
X037950Y003080D01*
X037837Y003080D01*
X038148Y003080D02*
X038148Y002740D01*
X038375Y002740D02*
X038148Y003080D01*
X038375Y003080D02*
X038375Y002740D01*
X038517Y002740D02*
X038687Y002740D01*
X038743Y002797D01*
X038743Y003024D01*
X038687Y003080D01*
X038517Y003080D01*
X038517Y002740D01*
X039933Y007492D02*
X039933Y011508D01*
X039933Y011492D02*
X039933Y015508D01*
X039933Y015992D02*
X039933Y018008D01*
X039067Y018492D02*
X039067Y020508D01*
X037500Y019250D02*
X037250Y019500D01*
X037500Y019250D02*
X037500Y018750D01*
X037250Y018500D01*
X035750Y018500D01*
X035500Y018750D01*
X035500Y019250D01*
X035750Y019500D01*
X035750Y018500D02*
X035500Y018250D01*
X035500Y017750D01*
X035750Y017500D01*
X037250Y017500D01*
X037500Y017750D01*
X037500Y018250D01*
X037250Y018500D01*
X037250Y017500D02*
X037500Y017250D01*
X037500Y016750D01*
X037250Y016500D01*
X035750Y016500D01*
X035500Y016750D01*
X035500Y017250D01*
X035750Y017500D01*
X035750Y016500D02*
X035500Y016250D01*
X035500Y015750D01*
X035750Y015500D01*
X037250Y015500D01*
X037500Y015750D01*
X037500Y016250D01*
X037250Y016500D01*
X037250Y015500D02*
X037500Y015250D01*
X037500Y014750D01*
X037250Y014500D01*
X035750Y014500D01*
X035500Y014750D01*
X035500Y015250D01*
X035750Y015500D01*
X035750Y014500D02*
X035500Y014250D01*
X035500Y013750D01*
X035750Y013500D01*
X037250Y013500D01*
X037500Y013750D01*
X037500Y014250D01*
X037250Y014500D01*
X037250Y013500D02*
X037500Y013250D01*
X037500Y012750D01*
X037250Y012500D01*
X035750Y012500D01*
X035500Y012750D01*
X035500Y013250D01*
X035750Y013500D01*
X035750Y012500D02*
X035500Y012250D01*
X035500Y011750D01*
X035750Y011500D01*
X037250Y011500D01*
X037500Y011250D01*
X037500Y010750D01*
X037250Y010500D01*
X035750Y010500D02*
X035500Y010750D01*
X035500Y011250D01*
X035750Y011500D01*
X037250Y011500D02*
X037500Y011750D01*
X037500Y012250D01*
X037250Y012500D01*
X033933Y015492D02*
X033933Y019508D01*
X030120Y017793D02*
X030120Y017567D01*
X030120Y017680D02*
X029780Y017680D01*
X029893Y017567D01*
X025950Y017680D02*
X025950Y017737D01*
X024508Y003933D02*
X020492Y003933D01*
D12*
X020497Y004220D02*
X020650Y004220D01*
X020727Y004297D01*
X020880Y004297D02*
X020957Y004220D01*
X021111Y004220D01*
X021187Y004297D01*
X021187Y004680D01*
X021341Y004680D02*
X021571Y004680D01*
X021648Y004604D01*
X021648Y004450D01*
X021571Y004373D01*
X021341Y004373D01*
X021341Y004220D02*
X021341Y004680D01*
X021494Y004373D02*
X021648Y004220D01*
X021801Y004143D02*
X022108Y004143D01*
X022262Y004220D02*
X022262Y004680D01*
X022415Y004527D01*
X022568Y004680D01*
X022568Y004220D01*
X022722Y004297D02*
X022799Y004220D01*
X022952Y004220D01*
X023029Y004297D01*
X023029Y004604D01*
X022952Y004680D01*
X022799Y004680D01*
X022722Y004604D01*
X022722Y004297D01*
X023336Y004220D02*
X023336Y004680D01*
X023489Y004680D02*
X023182Y004680D01*
X023643Y004604D02*
X023643Y004297D01*
X023719Y004220D01*
X023873Y004220D01*
X023950Y004297D01*
X023950Y004604D01*
X023873Y004680D01*
X023719Y004680D01*
X023643Y004604D01*
X024103Y004680D02*
X024333Y004680D01*
X024410Y004604D01*
X024410Y004450D01*
X024333Y004373D01*
X024103Y004373D01*
X024103Y004220D02*
X024103Y004680D01*
X024257Y004373D02*
X024410Y004220D01*
X024564Y004143D02*
X024870Y004143D01*
X025024Y004220D02*
X025254Y004220D01*
X025331Y004297D01*
X025331Y004604D01*
X025254Y004680D01*
X025024Y004680D01*
X025024Y004220D01*
X025484Y004220D02*
X025484Y004680D01*
X025715Y004680D01*
X025791Y004604D01*
X025791Y004450D01*
X025715Y004373D01*
X025484Y004373D01*
X025638Y004373D02*
X025791Y004220D01*
X025945Y004220D02*
X026098Y004220D01*
X026021Y004220D02*
X026021Y004680D01*
X025945Y004680D02*
X026098Y004680D01*
X026252Y004680D02*
X026252Y004373D01*
X026405Y004220D01*
X026559Y004373D01*
X026559Y004680D01*
X026712Y004680D02*
X026712Y004220D01*
X027019Y004220D01*
X027172Y004220D02*
X027172Y004680D01*
X027403Y004680D01*
X027479Y004604D01*
X027479Y004450D01*
X027403Y004373D01*
X027172Y004373D01*
X027326Y004373D02*
X027479Y004220D01*
X027019Y004680D02*
X026712Y004680D01*
X026712Y004450D02*
X026865Y004450D01*
X020880Y004297D02*
X020880Y004680D01*
X020727Y004604D02*
X020650Y004680D01*
X020497Y004680D01*
X020420Y004604D01*
X020420Y004297D01*
X020497Y004220D01*
X015467Y002704D02*
X015467Y002550D01*
X015390Y002473D01*
X015160Y002473D01*
X015160Y002320D02*
X015160Y002780D01*
X015390Y002780D01*
X015467Y002704D01*
X015313Y002473D02*
X015467Y002320D01*
X015006Y002320D02*
X014699Y002320D01*
X014699Y002780D01*
X015006Y002780D01*
X014853Y002550D02*
X014699Y002550D01*
X014546Y002473D02*
X014546Y002780D01*
X014546Y002473D02*
X014392Y002320D01*
X014239Y002473D01*
X014239Y002780D01*
X014085Y002780D02*
X013932Y002780D01*
X014009Y002780D02*
X014009Y002320D01*
X014085Y002320D02*
X013932Y002320D01*
X013778Y002320D02*
X013625Y002473D01*
X013702Y002473D02*
X013471Y002473D01*
X013471Y002320D02*
X013471Y002780D01*
X013702Y002780D01*
X013778Y002704D01*
X013778Y002550D01*
X013702Y002473D01*
X013318Y002397D02*
X013241Y002320D01*
X013011Y002320D01*
X013011Y002780D01*
X013241Y002780D01*
X013318Y002704D01*
X013318Y002397D01*
X012858Y002243D02*
X012551Y002243D01*
X012397Y002320D02*
X012244Y002473D01*
X012321Y002473D02*
X012090Y002473D01*
X012090Y002320D02*
X012090Y002780D01*
X012321Y002780D01*
X012397Y002704D01*
X012397Y002550D01*
X012321Y002473D01*
X011937Y002397D02*
X011860Y002320D01*
X011707Y002320D01*
X011630Y002397D01*
X011630Y002704D01*
X011707Y002780D01*
X011860Y002780D01*
X011937Y002704D01*
X011937Y002397D01*
X011476Y002780D02*
X011170Y002780D01*
X011323Y002780D02*
X011323Y002320D01*
X011016Y002397D02*
X011016Y002704D01*
X010939Y002780D01*
X010786Y002780D01*
X010709Y002704D01*
X010709Y002397D01*
X010786Y002320D01*
X010939Y002320D01*
X011016Y002397D01*
X010556Y002320D02*
X010556Y002780D01*
X010402Y002627D01*
X010249Y002780D01*
X010249Y002320D01*
X010095Y002243D02*
X009788Y002243D01*
X009635Y002397D02*
X009558Y002320D01*
X009328Y002320D01*
X009328Y002780D01*
X009558Y002780D01*
X009635Y002704D01*
X009635Y002397D01*
X009174Y002320D02*
X009174Y002780D01*
X008868Y002780D02*
X009174Y002320D01*
X008868Y002320D02*
X008868Y002780D01*
X008714Y002704D02*
X008637Y002780D01*
X008484Y002780D01*
X008407Y002704D01*
X008407Y002397D01*
X008484Y002320D01*
X008637Y002320D01*
X008714Y002397D01*
X008714Y002550D01*
X008561Y002550D01*
X008720Y007476D02*
X008720Y007707D01*
X008796Y007783D01*
X008873Y007783D01*
X008950Y007707D01*
X008950Y007476D01*
X009180Y007476D02*
X008720Y007476D01*
X008950Y007707D02*
X009027Y007783D01*
X009103Y007783D01*
X009180Y007707D01*
X009180Y007476D01*
X009180Y007937D02*
X008720Y007937D01*
X009180Y007937D02*
X009180Y008244D01*
X009103Y008397D02*
X008720Y008397D01*
X008720Y008704D02*
X009103Y008704D01*
X009180Y008627D01*
X009180Y008474D01*
X009103Y008397D01*
X009180Y008858D02*
X008720Y008858D01*
X008720Y009165D01*
X008720Y009318D02*
X008720Y009625D01*
X008720Y009471D02*
X009180Y009471D01*
X009180Y009165D02*
X009180Y008858D01*
X008950Y008858D02*
X008950Y009011D01*
X008796Y009778D02*
X009103Y009778D01*
X009180Y009855D01*
X009180Y010009D01*
X009103Y010085D01*
X008796Y010085D01*
X008720Y010009D01*
X008720Y009855D01*
X008796Y009778D01*
X008796Y010239D02*
X009103Y010239D01*
X009180Y010316D01*
X009180Y010469D01*
X009103Y010546D01*
X008796Y010546D01*
X008720Y010469D01*
X008720Y010316D01*
X008796Y010239D01*
X008720Y010699D02*
X008720Y011006D01*
X008720Y010853D02*
X009180Y010853D01*
X009180Y011160D02*
X008720Y011160D01*
X008950Y011160D02*
X008950Y011467D01*
X008720Y011467D02*
X009180Y011467D01*
X015407Y016320D02*
X015407Y016780D01*
X015637Y016780D01*
X015714Y016704D01*
X015714Y016550D01*
X015637Y016473D01*
X015407Y016473D01*
X015868Y016320D02*
X016021Y016473D01*
X016174Y016320D01*
X016174Y016780D01*
X016328Y016780D02*
X016481Y016627D01*
X016635Y016780D01*
X016635Y016320D01*
X016788Y016243D02*
X017095Y016243D01*
X017249Y016320D02*
X017249Y016780D01*
X017402Y016627D01*
X017556Y016780D01*
X017556Y016320D01*
X017709Y016397D02*
X017786Y016320D01*
X017939Y016320D01*
X018016Y016397D01*
X018016Y016704D01*
X017939Y016780D01*
X017786Y016780D01*
X017709Y016704D01*
X017709Y016397D01*
X018170Y016780D02*
X018476Y016780D01*
X018323Y016780D02*
X018323Y016320D01*
X018630Y016397D02*
X018707Y016320D01*
X018860Y016320D01*
X018937Y016397D01*
X018937Y016704D01*
X018860Y016780D01*
X018707Y016780D01*
X018630Y016704D01*
X018630Y016397D01*
X019090Y016473D02*
X019321Y016473D01*
X019397Y016550D01*
X019397Y016704D01*
X019321Y016780D01*
X019090Y016780D01*
X019090Y016320D01*
X019244Y016473D02*
X019397Y016320D01*
X019551Y016243D02*
X019858Y016243D01*
X020011Y016320D02*
X020241Y016320D01*
X020318Y016397D01*
X020318Y016704D01*
X020241Y016780D01*
X020011Y016780D01*
X020011Y016320D01*
X020471Y016320D02*
X020471Y016780D01*
X020702Y016780D01*
X020778Y016704D01*
X020778Y016550D01*
X020702Y016473D01*
X020471Y016473D01*
X020625Y016473D02*
X020778Y016320D01*
X020932Y016320D02*
X021085Y016320D01*
X021009Y016320D02*
X021009Y016780D01*
X021085Y016780D02*
X020932Y016780D01*
X021239Y016780D02*
X021239Y016473D01*
X021392Y016320D01*
X021546Y016473D01*
X021546Y016780D01*
X021699Y016780D02*
X021699Y016320D01*
X022006Y016320D01*
X022160Y016320D02*
X022160Y016780D01*
X022390Y016780D01*
X022467Y016704D01*
X022467Y016550D01*
X022390Y016473D01*
X022160Y016473D01*
X022313Y016473D02*
X022467Y016320D01*
X021853Y016550D02*
X021699Y016550D01*
X021699Y016780D02*
X022006Y016780D01*
X016328Y016780D02*
X016328Y016320D01*
X015868Y016320D02*
X015868Y016780D01*
X034220Y017011D02*
X034220Y017241D01*
X034296Y017318D01*
X034603Y017318D01*
X034680Y017241D01*
X034680Y017011D01*
X034220Y017011D01*
X034757Y016858D02*
X034757Y016551D01*
X034680Y016397D02*
X034527Y016244D01*
X034527Y016321D02*
X034527Y016090D01*
X034680Y016090D02*
X034220Y016090D01*
X034220Y016321D01*
X034296Y016397D01*
X034450Y016397D01*
X034527Y016321D01*
X034603Y015937D02*
X034296Y015937D01*
X034220Y015860D01*
X034220Y015707D01*
X034296Y015630D01*
X034603Y015630D01*
X034680Y015707D01*
X034680Y015860D01*
X034603Y015937D01*
X034603Y015467D02*
X034680Y015390D01*
X034680Y015236D01*
X034603Y015160D01*
X034603Y015016D02*
X034296Y015016D01*
X034220Y014939D01*
X034220Y014786D01*
X034296Y014709D01*
X034603Y014709D01*
X034680Y014786D01*
X034680Y014939D01*
X034603Y015016D01*
X034603Y014929D02*
X034220Y014929D01*
X034220Y014853D02*
X034220Y015006D01*
X034220Y015170D02*
X034220Y015476D01*
X034296Y015467D02*
X034373Y015467D01*
X034450Y015390D01*
X034527Y015467D01*
X034603Y015467D01*
X034680Y015323D02*
X034220Y015323D01*
X034220Y015390D02*
X034296Y015467D01*
X034220Y015390D02*
X034220Y015236D01*
X034296Y015160D01*
X034450Y015313D02*
X034450Y015390D01*
X034603Y014929D02*
X034680Y014853D01*
X034680Y014776D01*
X034603Y014699D01*
X034680Y014556D02*
X034220Y014556D01*
X034373Y014402D01*
X034220Y014249D01*
X034680Y014249D01*
X034757Y014095D02*
X034757Y013788D01*
X034680Y013635D02*
X034527Y013481D01*
X034527Y013558D02*
X034527Y013328D01*
X034680Y013328D02*
X034220Y013328D01*
X034220Y013558D01*
X034296Y013635D01*
X034450Y013635D01*
X034527Y013558D01*
X034680Y013174D02*
X034680Y013021D01*
X034680Y013098D02*
X034220Y013098D01*
X034220Y013174D02*
X034220Y013021D01*
X034296Y012868D02*
X034220Y012791D01*
X034220Y012561D01*
X034680Y012561D01*
X034680Y012791D01*
X034603Y012868D01*
X034296Y012868D01*
X034450Y011467D02*
X034450Y011160D01*
X034220Y011390D01*
X034680Y011390D01*
X034220Y011006D02*
X034220Y010853D01*
X034220Y010929D02*
X034603Y010929D01*
X034680Y010853D01*
X034680Y010776D01*
X034603Y010699D01*
X040220Y010853D02*
X040220Y011006D01*
X040220Y010929D02*
X040603Y010929D01*
X040680Y010853D01*
X040680Y010776D01*
X040603Y010699D01*
X040603Y011160D02*
X040450Y011160D01*
X040450Y011390D01*
X040527Y011467D01*
X040603Y011467D01*
X040680Y011390D01*
X040680Y011236D01*
X040603Y011160D01*
X040450Y011160D02*
X040296Y011313D01*
X040220Y011467D01*
X040220Y014590D02*
X040220Y014821D01*
X040296Y014897D01*
X040373Y014897D01*
X040450Y014821D01*
X040450Y014590D01*
X040603Y014699D02*
X040680Y014776D01*
X040680Y014853D01*
X040603Y014929D01*
X040220Y014929D01*
X040220Y014853D02*
X040220Y015006D01*
X040220Y015160D02*
X040450Y015160D01*
X040373Y015313D01*
X040373Y015390D01*
X040450Y015467D01*
X040603Y015467D01*
X040680Y015390D01*
X040680Y015236D01*
X040603Y015160D01*
X040680Y015051D02*
X040373Y015051D01*
X040220Y015204D01*
X040373Y015358D01*
X040680Y015358D01*
X040450Y015358D02*
X040450Y015051D01*
X040527Y014897D02*
X040603Y014897D01*
X040680Y014821D01*
X040680Y014590D01*
X040220Y014590D01*
X040450Y014821D02*
X040527Y014897D01*
X040220Y015160D02*
X040220Y015467D01*
X040220Y015511D02*
X040220Y015818D01*
X040220Y015665D02*
X040680Y015665D01*
X040680Y016125D02*
X040220Y016125D01*
X040220Y016278D02*
X040220Y015971D01*
X040220Y016432D02*
X040680Y016432D01*
X040680Y016739D01*
X040680Y016892D02*
X040220Y016892D01*
X040220Y017122D01*
X040296Y017199D01*
X040450Y017199D01*
X040527Y017122D01*
X040527Y016892D01*
X040527Y017046D02*
X040680Y017199D01*
X040680Y017353D02*
X040680Y017506D01*
X040680Y017429D02*
X040220Y017429D01*
X040220Y017353D02*
X040220Y017506D01*
X040220Y017813D02*
X040220Y017967D01*
X040220Y017890D02*
X040603Y017890D01*
X040680Y017813D01*
X040680Y017736D01*
X040603Y017660D01*
X040220Y016739D02*
X040220Y016432D01*
X040450Y016432D02*
X040450Y016585D01*
X038703Y018420D02*
X038780Y018497D01*
X038780Y018650D01*
X038703Y018727D01*
X038550Y018727D01*
X038473Y018650D01*
X038473Y018573D01*
X038550Y018420D01*
X038320Y018420D01*
X038320Y018727D01*
X038320Y018880D02*
X038627Y018880D01*
X038780Y019034D01*
X038627Y019187D01*
X038320Y019187D01*
X038550Y019341D02*
X038550Y019648D01*
X038703Y019801D02*
X038780Y019878D01*
X038780Y020031D01*
X038703Y020108D01*
X038550Y020108D01*
X038550Y019955D01*
X038396Y020108D02*
X038320Y020031D01*
X038320Y019878D01*
X038396Y019801D01*
X038703Y019801D01*
X038703Y019494D02*
X038396Y019494D01*
X038320Y020262D02*
X038780Y020568D01*
X038320Y020568D01*
X038320Y020722D02*
X038320Y020952D01*
X038396Y021029D01*
X038703Y021029D01*
X038780Y020952D01*
X038780Y020722D01*
X038320Y020722D01*
X038320Y020262D02*
X038780Y020262D01*
X034680Y019467D02*
X034527Y019313D01*
X034527Y019390D02*
X034527Y019160D01*
X034680Y019160D02*
X034220Y019160D01*
X034220Y019390D01*
X034296Y019467D01*
X034450Y019467D01*
X034527Y019390D01*
X034680Y019006D02*
X034680Y018699D01*
X034220Y018699D01*
X034220Y019006D01*
X034450Y018853D02*
X034450Y018699D01*
X034527Y018546D02*
X034220Y018546D01*
X034527Y018546D02*
X034680Y018392D01*
X034527Y018239D01*
X034220Y018239D01*
X034220Y018085D02*
X034220Y017932D01*
X034220Y018009D02*
X034680Y018009D01*
X034680Y018085D02*
X034680Y017932D01*
X034680Y017778D02*
X034527Y017625D01*
X034527Y017702D02*
X034527Y017471D01*
X034680Y017471D02*
X034220Y017471D01*
X034220Y017702D01*
X034296Y017778D01*
X034450Y017778D01*
X034527Y017702D01*
D13*
X034670Y017740D02*
X034350Y017740D01*
X034670Y018060D01*
X034670Y018140D01*
X034590Y018220D01*
X034430Y018220D01*
X034350Y018140D01*
X034866Y017980D02*
X035186Y017980D01*
X035106Y017740D02*
X035106Y018220D01*
X034866Y017980D01*
X034866Y018740D02*
X035186Y019060D01*
X035186Y019140D01*
X035106Y019220D01*
X034946Y019220D01*
X034866Y019140D01*
X034670Y019140D02*
X034670Y019060D01*
X034350Y018740D01*
X034670Y018740D01*
X034866Y018740D02*
X035186Y018740D01*
X034670Y019140D02*
X034590Y019220D01*
X034430Y019220D01*
X034350Y019140D01*
X033500Y019750D02*
X033250Y019500D01*
X032750Y019500D01*
X032500Y019750D01*
X032250Y019500D01*
X031750Y019500D01*
X031500Y019750D01*
X031250Y019500D01*
X030750Y019500D01*
X030500Y019750D01*
X030250Y019500D01*
X029750Y019500D01*
X029500Y019750D01*
X029250Y019500D01*
X028750Y019500D01*
X028500Y019750D01*
X028250Y019500D01*
X027750Y019500D01*
X027500Y019750D01*
X027250Y019500D01*
X026750Y019500D01*
X026500Y019750D01*
X026250Y019500D01*
X025750Y019500D01*
X025500Y019750D01*
X025500Y020250D01*
X025750Y020500D01*
X026250Y020500D01*
X026500Y020250D01*
X026750Y020500D01*
X027250Y020500D01*
X027500Y020250D01*
X027750Y020500D01*
X028250Y020500D01*
X028500Y020250D01*
X028750Y020500D01*
X029250Y020500D01*
X029500Y020250D01*
X029750Y020500D01*
X030250Y020500D01*
X030500Y020250D01*
X030750Y020500D01*
X031250Y020500D01*
X031500Y020250D01*
X031750Y020500D01*
X032250Y020500D01*
X032500Y020250D01*
X032750Y020500D01*
X033250Y020500D01*
X033500Y020250D01*
X033500Y019750D01*
X033110Y019326D02*
X033110Y019006D01*
X033110Y019166D02*
X032630Y019166D01*
X032790Y019006D01*
X032790Y018810D02*
X032710Y018810D01*
X032630Y018730D01*
X032630Y018570D01*
X032710Y018490D01*
X032790Y018810D02*
X033110Y018490D01*
X033110Y018810D01*
X032110Y018810D02*
X032110Y018490D01*
X031790Y018810D01*
X031710Y018810D01*
X031630Y018730D01*
X031630Y018570D01*
X031710Y018490D01*
X031110Y018490D02*
X031110Y018810D01*
X031110Y018650D02*
X030630Y018650D01*
X030790Y018490D01*
X030110Y018490D02*
X030110Y018810D01*
X030110Y018650D02*
X029630Y018650D01*
X029790Y018490D01*
X029790Y019006D02*
X029710Y019006D01*
X029630Y019086D01*
X029630Y019246D01*
X029710Y019326D01*
X029790Y019326D01*
X029870Y019246D01*
X029870Y019086D01*
X029790Y019006D01*
X029870Y019086D02*
X029950Y019006D01*
X030030Y019006D01*
X030110Y019086D01*
X030110Y019246D01*
X030030Y019326D01*
X029950Y019326D01*
X029870Y019246D01*
X030630Y019246D02*
X030630Y019086D01*
X030710Y019006D01*
X030790Y019006D01*
X030870Y019086D01*
X030870Y019326D01*
X031030Y019326D02*
X030710Y019326D01*
X030630Y019246D01*
X031030Y019326D02*
X031110Y019246D01*
X031110Y019086D01*
X031030Y019006D01*
X031630Y019086D02*
X031630Y019246D01*
X031710Y019326D01*
X032030Y019006D01*
X032110Y019086D01*
X032110Y019246D01*
X032030Y019326D01*
X031710Y019326D01*
X031630Y019086D02*
X031710Y019006D01*
X032030Y019006D01*
X029110Y019006D02*
X029030Y019006D01*
X028710Y019326D01*
X028630Y019326D01*
X028630Y019006D01*
X028630Y018650D02*
X029110Y018650D01*
X029110Y018490D02*
X029110Y018810D01*
X028790Y018490D02*
X028630Y018650D01*
X028110Y018650D02*
X027630Y018650D01*
X027790Y018490D01*
X028110Y018490D02*
X028110Y018810D01*
X028030Y019006D02*
X028110Y019086D01*
X028110Y019246D01*
X028030Y019326D01*
X027950Y019326D01*
X027870Y019246D01*
X027870Y019006D01*
X028030Y019006D01*
X027870Y019006D02*
X027710Y019166D01*
X027630Y019326D01*
X027110Y019246D02*
X027110Y019086D01*
X027030Y019006D01*
X026870Y019006D02*
X026790Y019166D01*
X026790Y019246D01*
X026870Y019326D01*
X027030Y019326D01*
X027110Y019246D01*
X026870Y019006D02*
X026630Y019006D01*
X026630Y019326D01*
X026110Y019246D02*
X025630Y019246D01*
X025870Y019006D01*
X025870Y019326D01*
X026110Y018810D02*
X026110Y018490D01*
X026110Y018650D02*
X025630Y018650D01*
X025790Y018490D01*
X026630Y018650D02*
X026790Y018490D01*
X026630Y018650D02*
X027110Y018650D01*
X027110Y018490D02*
X027110Y018810D01*
X024500Y019750D02*
X024500Y020250D01*
X024250Y020500D01*
X023750Y020500D01*
X023500Y020250D01*
X023250Y020500D01*
X022750Y020500D01*
X022500Y020250D01*
X022250Y020500D01*
X021750Y020500D01*
X021500Y020250D01*
X021250Y020500D01*
X020750Y020500D01*
X020500Y020250D01*
X020250Y020500D01*
X019750Y020500D01*
X019500Y020250D01*
X019250Y020500D01*
X018750Y020500D01*
X018500Y020250D01*
X018250Y020500D01*
X017750Y020500D01*
X017500Y020250D01*
X017250Y020500D01*
X016750Y020500D01*
X016500Y020250D01*
X016500Y019750D01*
X016750Y019500D01*
X017250Y019500D01*
X017500Y019750D01*
X017750Y019500D01*
X018250Y019500D01*
X018500Y019750D01*
X018750Y019500D01*
X019250Y019500D01*
X019500Y019750D01*
X019750Y019500D01*
X020250Y019500D01*
X020500Y019750D01*
X020750Y019500D01*
X021250Y019500D01*
X021500Y019750D01*
X021750Y019500D01*
X022250Y019500D01*
X022500Y019750D01*
X022750Y019500D01*
X023250Y019500D01*
X023500Y019750D01*
X023750Y019500D01*
X024250Y019500D01*
X024500Y019750D01*
X024030Y019160D02*
X023710Y019160D01*
X024030Y018840D01*
X024110Y018920D01*
X024110Y019080D01*
X024030Y019160D01*
X023710Y019160D02*
X023630Y019080D01*
X023630Y018920D01*
X023710Y018840D01*
X024030Y018840D01*
X023950Y018500D02*
X023950Y018000D01*
X023750Y018200D01*
X023950Y018000D02*
X024150Y018200D01*
X023150Y018300D02*
X022950Y018500D01*
X022750Y018300D01*
X022950Y018500D02*
X022950Y018000D01*
X023110Y018840D02*
X023110Y019160D01*
X023110Y019000D02*
X022630Y019000D01*
X022790Y018840D01*
X022110Y018840D02*
X021790Y019160D01*
X021710Y019160D01*
X021630Y019080D01*
X021630Y018920D01*
X021710Y018840D01*
X022110Y018840D02*
X022110Y019160D01*
X021110Y019080D02*
X021110Y018920D01*
X021030Y018840D01*
X020870Y019000D02*
X020870Y019080D01*
X020950Y019160D01*
X021030Y019160D01*
X021110Y019080D01*
X020870Y019080D02*
X020790Y019160D01*
X020710Y019160D01*
X020630Y019080D01*
X020630Y018920D01*
X020710Y018840D01*
X020110Y019080D02*
X019630Y019080D01*
X019870Y018840D01*
X019870Y019160D01*
X019110Y019080D02*
X019110Y018920D01*
X019030Y018840D01*
X018870Y018840D02*
X018790Y019000D01*
X018790Y019080D01*
X018870Y019160D01*
X019030Y019160D01*
X019110Y019080D01*
X018870Y018840D02*
X018630Y018840D01*
X018630Y019160D01*
X018110Y019080D02*
X018030Y019160D01*
X017950Y019160D01*
X017870Y019080D01*
X017870Y018840D01*
X018030Y018840D01*
X018110Y018920D01*
X018110Y019080D01*
X017870Y018840D02*
X017710Y019000D01*
X017630Y019160D01*
X017110Y018840D02*
X017030Y018840D01*
X016710Y019160D01*
X016630Y019160D01*
X016630Y018840D01*
X015610Y018920D02*
X015530Y018840D01*
X015450Y018840D01*
X015370Y018920D01*
X015370Y019080D01*
X015450Y019160D01*
X015530Y019160D01*
X015610Y019080D01*
X015610Y018920D01*
X015370Y018920D02*
X015290Y018840D01*
X015210Y018840D01*
X015130Y018920D01*
X015130Y019080D01*
X015210Y019160D01*
X015290Y019160D01*
X015370Y019080D01*
X015150Y019500D02*
X015650Y019500D01*
X015900Y019750D01*
X015900Y020250D01*
X015650Y020500D01*
X015150Y020500D01*
X014900Y020250D01*
X014650Y020500D01*
X014150Y020500D01*
X013900Y020250D01*
X013650Y020500D01*
X013150Y020500D01*
X012900Y020250D01*
X012650Y020500D01*
X012150Y020500D01*
X011900Y020250D01*
X011650Y020500D01*
X011150Y020500D01*
X010900Y020250D01*
X010650Y020500D01*
X010150Y020500D01*
X009900Y020250D01*
X009650Y020500D01*
X009150Y020500D01*
X008900Y020250D01*
X008650Y020500D01*
X008150Y020500D01*
X007900Y020250D01*
X007900Y019750D01*
X008150Y019500D01*
X008650Y019500D01*
X008900Y019750D01*
X009150Y019500D01*
X009650Y019500D01*
X009900Y019750D01*
X010150Y019500D01*
X010650Y019500D01*
X010900Y019750D01*
X011150Y019500D01*
X011650Y019500D01*
X011900Y019750D01*
X012150Y019500D01*
X012650Y019500D01*
X012900Y019750D01*
X013150Y019500D01*
X013650Y019500D01*
X013900Y019750D01*
X014150Y019500D01*
X014650Y019500D01*
X014900Y019750D01*
X015150Y019500D01*
X014610Y019080D02*
X014530Y019160D01*
X014210Y019160D01*
X014130Y019080D01*
X014130Y018920D01*
X014210Y018840D01*
X014290Y018840D01*
X014370Y018920D01*
X014370Y019160D01*
X014610Y019080D02*
X014610Y018920D01*
X014530Y018840D01*
X013610Y018936D02*
X013530Y018856D01*
X013210Y019176D01*
X013530Y019176D01*
X013610Y019096D01*
X013610Y018936D01*
X013530Y018856D02*
X013210Y018856D01*
X013130Y018936D01*
X013130Y019096D01*
X013210Y019176D01*
X012610Y019176D02*
X012610Y018856D01*
X012610Y019016D02*
X012130Y019016D01*
X012290Y018856D01*
X012610Y018660D02*
X012610Y018340D01*
X012610Y018500D02*
X012130Y018500D01*
X012290Y018340D01*
X011610Y018340D02*
X011610Y018660D01*
X011610Y018500D02*
X011130Y018500D01*
X011290Y018340D01*
X011210Y018856D02*
X011130Y018936D01*
X011130Y019096D01*
X011210Y019176D01*
X011290Y019176D01*
X011610Y018856D01*
X011610Y019176D01*
X010610Y019096D02*
X010610Y018936D01*
X010530Y018856D01*
X010610Y018660D02*
X010610Y018340D01*
X010610Y018500D02*
X010130Y018500D01*
X010290Y018340D01*
X009620Y018309D02*
X009140Y018309D01*
X009620Y018629D01*
X009140Y018629D01*
X009140Y018824D02*
X009140Y019065D01*
X009220Y019145D01*
X009540Y019145D01*
X009620Y019065D01*
X009620Y018824D01*
X009140Y018824D01*
X008670Y018824D02*
X008190Y018824D01*
X008190Y019145D01*
X008430Y018984D02*
X008430Y018824D01*
X008670Y018629D02*
X008670Y018309D01*
X008190Y018309D01*
X008190Y018629D01*
X008430Y018469D02*
X008430Y018309D01*
X008430Y018113D02*
X008510Y018033D01*
X008510Y017793D01*
X008670Y017793D02*
X008190Y017793D01*
X008190Y018033D01*
X008270Y018113D01*
X008430Y018113D01*
X008510Y017953D02*
X008670Y018113D01*
X009140Y018033D02*
X009140Y017873D01*
X009220Y017793D01*
X009540Y017793D01*
X009620Y017873D01*
X009620Y018033D01*
X009540Y018113D01*
X009380Y018113D01*
X009380Y017953D01*
X009220Y018113D02*
X009140Y018033D01*
X008670Y017598D02*
X008350Y017598D01*
X008190Y017438D01*
X008350Y017277D01*
X008670Y017277D01*
X008430Y017277D02*
X008430Y017598D01*
X010130Y018936D02*
X010210Y018856D01*
X010130Y018936D02*
X010130Y019096D01*
X010210Y019176D01*
X010290Y019176D01*
X010370Y019096D01*
X010450Y019176D01*
X010530Y019176D01*
X010610Y019096D01*
X010370Y019096D02*
X010370Y019016D01*
X013130Y018500D02*
X013290Y018340D01*
X013130Y018500D02*
X013610Y018500D01*
X013610Y018340D02*
X013610Y018660D01*
X034350Y017140D02*
X034430Y017220D01*
X034590Y017220D01*
X034670Y017140D01*
X034670Y017060D01*
X034350Y016740D01*
X034670Y016740D01*
X034866Y016820D02*
X034866Y016980D01*
X035106Y016980D01*
X035186Y016900D01*
X035186Y016820D01*
X035106Y016740D01*
X034946Y016740D01*
X034866Y016820D01*
X034866Y016980D02*
X035026Y017140D01*
X035186Y017220D01*
X035106Y016220D02*
X035186Y016140D01*
X035186Y016060D01*
X035106Y015980D01*
X034946Y015980D01*
X034866Y016060D01*
X034866Y016140D01*
X034946Y016220D01*
X035106Y016220D01*
X035106Y015980D02*
X035186Y015900D01*
X035186Y015820D01*
X035106Y015740D01*
X034946Y015740D01*
X034866Y015820D01*
X034866Y015900D01*
X034946Y015980D01*
X034670Y016060D02*
X034670Y016140D01*
X034590Y016220D01*
X034430Y016220D01*
X034350Y016140D01*
X034670Y016060D02*
X034350Y015740D01*
X034670Y015740D01*
X034590Y015220D02*
X034670Y015140D01*
X034670Y015060D01*
X034590Y014980D01*
X034670Y014900D01*
X034670Y014820D01*
X034590Y014740D01*
X034430Y014740D01*
X034350Y014820D01*
X034510Y014980D02*
X034590Y014980D01*
X034590Y015220D02*
X034430Y015220D01*
X034350Y015140D01*
X034866Y015140D02*
X034866Y014820D01*
X035186Y015140D01*
X035186Y014820D01*
X035106Y014740D01*
X034946Y014740D01*
X034866Y014820D01*
X034866Y015140D02*
X034946Y015220D01*
X035106Y015220D01*
X035186Y015140D01*
X035106Y014220D02*
X034946Y014220D01*
X034866Y014140D01*
X034670Y014140D02*
X034590Y014220D01*
X034430Y014220D01*
X034350Y014140D01*
X034510Y013980D02*
X034590Y013980D01*
X034670Y013900D01*
X034670Y013820D01*
X034590Y013740D01*
X034430Y013740D01*
X034350Y013820D01*
X034590Y013980D02*
X034670Y014060D01*
X034670Y014140D01*
X035106Y014220D02*
X035186Y014140D01*
X035186Y014060D01*
X034866Y013740D01*
X035186Y013740D01*
X035106Y013220D02*
X034866Y012980D01*
X035186Y012980D01*
X035106Y012740D02*
X035106Y013220D01*
X034670Y013140D02*
X034670Y013060D01*
X034590Y012980D01*
X034670Y012900D01*
X034670Y012820D01*
X034590Y012740D01*
X034430Y012740D01*
X034350Y012820D01*
X034510Y012980D02*
X034590Y012980D01*
X034670Y013140D02*
X034590Y013220D01*
X034430Y013220D01*
X034350Y013140D01*
X034430Y012220D02*
X034350Y012140D01*
X034430Y012220D02*
X034590Y012220D01*
X034670Y012140D01*
X034670Y012060D01*
X034590Y011980D01*
X034670Y011900D01*
X034670Y011820D01*
X034590Y011740D01*
X034430Y011740D01*
X034350Y011820D01*
X034510Y011980D02*
X034590Y011980D01*
X034866Y011980D02*
X034866Y011820D01*
X034946Y011740D01*
X035106Y011740D01*
X035186Y011820D01*
X035186Y011900D01*
X035106Y011980D01*
X034866Y011980D01*
X035026Y012140D01*
X035186Y012220D01*
X035106Y011220D02*
X035186Y011140D01*
X035186Y011060D01*
X035106Y010980D01*
X034946Y010980D01*
X034866Y011060D01*
X034866Y011140D01*
X034946Y011220D01*
X035106Y011220D01*
X035106Y010980D02*
X035186Y010900D01*
X035186Y010820D01*
X035106Y010740D01*
X034946Y010740D01*
X034866Y010820D01*
X034866Y010900D01*
X034946Y010980D01*
X034670Y010900D02*
X034670Y010820D01*
X034590Y010740D01*
X034430Y010740D01*
X034350Y010820D01*
X034510Y010980D02*
X034590Y010980D01*
X034670Y010900D01*
X034590Y010980D02*
X034670Y011060D01*
X034670Y011140D01*
X034590Y011220D01*
X034430Y011220D01*
X034350Y011140D01*
X034590Y010220D02*
X034350Y009980D01*
X034670Y009980D01*
X034866Y009820D02*
X034946Y009740D01*
X035106Y009740D01*
X035186Y009820D01*
X035186Y010140D01*
X034866Y009820D01*
X034866Y010140D01*
X034946Y010220D01*
X035106Y010220D01*
X035186Y010140D01*
X034590Y010220D02*
X034590Y009740D01*
X034590Y009220D02*
X034350Y008980D01*
X034670Y008980D01*
X034590Y008740D02*
X034590Y009220D01*
X034866Y009140D02*
X034946Y009220D01*
X035106Y009220D01*
X035186Y009140D01*
X035186Y009060D01*
X034866Y008740D01*
X035186Y008740D01*
X035106Y008220D02*
X034866Y007980D01*
X035186Y007980D01*
X035106Y007740D02*
X035106Y008220D01*
X034670Y007980D02*
X034350Y007980D01*
X034590Y008220D01*
X034590Y007740D01*
X034590Y007220D02*
X034350Y006980D01*
X034670Y006980D01*
X034866Y006980D02*
X035026Y007140D01*
X035186Y007220D01*
X035106Y006980D02*
X034866Y006980D01*
X034866Y006820D01*
X034946Y006740D01*
X035106Y006740D01*
X035186Y006820D01*
X035186Y006900D01*
X035106Y006980D01*
X034590Y006740D02*
X034590Y007220D01*
X034590Y006220D02*
X034350Y005980D01*
X034670Y005980D01*
X034866Y005900D02*
X034866Y005820D01*
X034946Y005740D01*
X035106Y005740D01*
X035186Y005820D01*
X035186Y005900D01*
X035106Y005980D01*
X034946Y005980D01*
X034866Y006060D01*
X034866Y006140D01*
X034946Y006220D01*
X035106Y006220D01*
X035186Y006140D01*
X035186Y006060D01*
X035106Y005980D01*
X034946Y005980D02*
X034866Y005900D01*
X034590Y005740D02*
X034590Y006220D01*
X034670Y005220D02*
X034350Y005220D01*
X034350Y004980D01*
X034510Y005060D01*
X034590Y005060D01*
X034670Y004980D01*
X034670Y004820D01*
X034590Y004740D01*
X034430Y004740D01*
X034350Y004820D01*
X034866Y004820D02*
X035186Y005140D01*
X035186Y004820D01*
X035106Y004740D01*
X034946Y004740D01*
X034866Y004820D01*
X034866Y005140D01*
X034946Y005220D01*
X035106Y005220D01*
X035186Y005140D01*
X035106Y004220D02*
X034946Y004220D01*
X034866Y004140D01*
X034670Y004220D02*
X034350Y004220D01*
X034350Y003980D01*
X034510Y004060D01*
X034590Y004060D01*
X034670Y003980D01*
X034670Y003820D01*
X034590Y003740D01*
X034430Y003740D01*
X034350Y003820D01*
X034866Y003740D02*
X035186Y004060D01*
X035186Y004140D01*
X035106Y004220D01*
X035186Y003740D02*
X034866Y003740D01*
X034970Y003202D02*
X035130Y003202D01*
X035210Y003121D01*
X035210Y002961D01*
X035130Y002881D01*
X034970Y002881D02*
X034890Y003041D01*
X034890Y003121D01*
X034970Y003202D01*
X034730Y003202D02*
X034730Y002881D01*
X034970Y002881D01*
X035210Y002686D02*
X035210Y002366D01*
X035210Y002526D02*
X034730Y002526D01*
X034890Y002366D01*
X034890Y002170D02*
X035210Y002170D01*
X034970Y002170D02*
X034970Y001850D01*
X034890Y001850D02*
X034730Y002010D01*
X034890Y002170D01*
X034890Y001850D02*
X035210Y001850D01*
X035250Y001500D02*
X034750Y001500D01*
X034500Y001250D01*
X034250Y001500D01*
X033750Y001500D01*
X033500Y001250D01*
X033250Y001500D01*
X032750Y001500D01*
X032500Y001250D01*
X032250Y001500D01*
X031750Y001500D01*
X031500Y001250D01*
X031250Y001500D01*
X030750Y001500D01*
X030500Y001250D01*
X030250Y001500D01*
X029750Y001500D01*
X029500Y001250D01*
X029250Y001500D01*
X028750Y001500D01*
X028500Y001250D01*
X028250Y001500D01*
X027750Y001500D01*
X027500Y001250D01*
X027500Y000750D01*
X027750Y000500D01*
X028250Y000500D01*
X028500Y000750D01*
X028750Y000500D01*
X029250Y000500D01*
X029500Y000750D01*
X029750Y000500D01*
X030250Y000500D01*
X030500Y000750D01*
X030750Y000500D01*
X031250Y000500D01*
X031500Y000750D01*
X031750Y000500D01*
X032250Y000500D01*
X032500Y000750D01*
X032750Y000500D01*
X033250Y000500D01*
X033500Y000750D01*
X033750Y000500D01*
X034250Y000500D01*
X034500Y000750D01*
X034750Y000500D01*
X035250Y000500D01*
X035500Y000750D01*
X035500Y001250D01*
X035250Y001500D01*
X034260Y001850D02*
X033940Y001850D01*
X033780Y002010D01*
X033940Y002170D01*
X034260Y002170D01*
X034260Y002366D02*
X034260Y002686D01*
X034260Y002526D02*
X033780Y002526D01*
X033940Y002366D01*
X034020Y002170D02*
X034020Y001850D01*
X033260Y001850D02*
X032940Y001850D01*
X032780Y002010D01*
X032940Y002170D01*
X033260Y002170D01*
X033260Y002366D02*
X033260Y002686D01*
X033260Y002526D02*
X032780Y002526D01*
X032940Y002366D01*
X033020Y002170D02*
X033020Y001850D01*
X032260Y001850D02*
X031940Y001850D01*
X031780Y002010D01*
X031940Y002170D01*
X032260Y002170D01*
X032260Y002366D02*
X032260Y002686D01*
X032260Y002526D02*
X031780Y002526D01*
X031940Y002366D01*
X032020Y002170D02*
X032020Y001850D01*
X031260Y001850D02*
X030940Y001850D01*
X030780Y002010D01*
X030940Y002170D01*
X031260Y002170D01*
X031260Y002366D02*
X031260Y002686D01*
X031260Y002526D02*
X030780Y002526D01*
X030940Y002366D01*
X031020Y002170D02*
X031020Y001850D01*
X030260Y001850D02*
X029940Y001850D01*
X029780Y002010D01*
X029940Y002170D01*
X030260Y002170D01*
X030260Y002366D02*
X030260Y002686D01*
X030260Y002526D02*
X029780Y002526D01*
X029940Y002366D01*
X030020Y002170D02*
X030020Y001850D01*
X029260Y001850D02*
X028940Y001850D01*
X028780Y002010D01*
X028940Y002170D01*
X029260Y002170D01*
X029180Y002366D02*
X029260Y002446D01*
X029260Y002606D01*
X029180Y002686D01*
X028860Y002686D01*
X028780Y002606D01*
X028780Y002446D01*
X028860Y002366D01*
X028940Y002366D01*
X029020Y002446D01*
X029020Y002686D01*
X029020Y002170D02*
X029020Y001850D01*
X028260Y001850D02*
X027940Y001850D01*
X027780Y002010D01*
X027940Y002170D01*
X028260Y002170D01*
X028180Y002366D02*
X028100Y002366D01*
X028020Y002446D01*
X028020Y002606D01*
X028100Y002686D01*
X028180Y002686D01*
X028260Y002606D01*
X028260Y002446D01*
X028180Y002366D01*
X028020Y002446D02*
X027940Y002366D01*
X027860Y002366D01*
X027780Y002446D01*
X027780Y002606D01*
X027860Y002686D01*
X027940Y002686D01*
X028020Y002606D01*
X028020Y002170D02*
X028020Y001850D01*
X026500Y001250D02*
X026500Y000750D01*
X026250Y000500D01*
X025750Y000500D01*
X025500Y000750D01*
X025250Y000500D01*
X024750Y000500D01*
X024500Y000750D01*
X024250Y000500D01*
X023750Y000500D01*
X023500Y000750D01*
X023250Y000500D01*
X022750Y000500D01*
X022500Y000750D01*
X022250Y000500D01*
X021750Y000500D01*
X021500Y000750D01*
X021250Y000500D01*
X020750Y000500D01*
X020500Y000750D01*
X020250Y000500D01*
X019750Y000500D01*
X019500Y000750D01*
X019250Y000500D01*
X018750Y000500D01*
X018500Y000750D01*
X018500Y001250D01*
X018750Y001500D01*
X019250Y001500D01*
X019500Y001250D01*
X019750Y001500D01*
X020250Y001500D01*
X020500Y001250D01*
X020750Y001500D01*
X021250Y001500D01*
X021500Y001250D01*
X021750Y001500D01*
X022250Y001500D01*
X022500Y001250D01*
X022750Y001500D01*
X023250Y001500D01*
X023500Y001250D01*
X023750Y001500D01*
X024250Y001500D01*
X024500Y001250D01*
X024750Y001500D01*
X025250Y001500D01*
X025500Y001250D01*
X025750Y001500D01*
X026250Y001500D01*
X026500Y001250D01*
X026260Y001850D02*
X025940Y001850D01*
X025780Y002010D01*
X025940Y002170D01*
X026260Y002170D01*
X026260Y002366D02*
X026180Y002366D01*
X025860Y002686D01*
X025780Y002686D01*
X025780Y002366D01*
X026020Y002170D02*
X026020Y001850D01*
X025210Y001930D02*
X025130Y001850D01*
X024970Y001850D01*
X024970Y002090D01*
X025050Y002170D01*
X025130Y002170D01*
X025210Y002090D01*
X025210Y001930D01*
X024970Y001850D02*
X024810Y002010D01*
X024730Y002170D01*
X024210Y002170D02*
X023890Y002170D01*
X023730Y002010D01*
X023890Y001850D01*
X024210Y001850D01*
X023970Y001850D02*
X023970Y002170D01*
X023970Y002366D02*
X023890Y002526D01*
X023890Y002606D01*
X023970Y002686D01*
X024130Y002686D01*
X024210Y002606D01*
X024210Y002446D01*
X024130Y002366D01*
X023970Y002366D02*
X023730Y002366D01*
X023730Y002686D01*
X023260Y002606D02*
X022780Y002606D01*
X023020Y002366D01*
X023020Y002686D01*
X022260Y002606D02*
X022260Y002446D01*
X022180Y002366D01*
X022260Y002170D02*
X021940Y002170D01*
X021780Y002010D01*
X021940Y001850D01*
X022260Y001850D01*
X022020Y001850D02*
X022020Y002170D01*
X021860Y002366D02*
X021780Y002446D01*
X021780Y002606D01*
X021860Y002686D01*
X021940Y002686D01*
X022020Y002606D01*
X022100Y002686D01*
X022180Y002686D01*
X022260Y002606D01*
X022020Y002606D02*
X022020Y002526D01*
X021260Y002686D02*
X021260Y002366D01*
X020940Y002686D01*
X020860Y002686D01*
X020780Y002606D01*
X020780Y002446D01*
X020860Y002366D01*
X020940Y002170D02*
X021260Y002170D01*
X021020Y002170D02*
X021020Y001850D01*
X020940Y001850D02*
X020780Y002010D01*
X020940Y002170D01*
X020940Y001850D02*
X021260Y001850D01*
X020160Y001850D02*
X019840Y001850D01*
X019680Y002010D01*
X019840Y002170D01*
X020160Y002170D01*
X020160Y002366D02*
X020160Y002686D01*
X020160Y002526D02*
X019680Y002526D01*
X019840Y002366D01*
X019920Y002170D02*
X019920Y001850D01*
X019260Y001850D02*
X018940Y001850D01*
X018780Y002010D01*
X018940Y002170D01*
X019260Y002170D01*
X019180Y002366D02*
X018860Y002686D01*
X019180Y002686D01*
X019260Y002606D01*
X019260Y002446D01*
X019180Y002366D01*
X018860Y002366D01*
X018780Y002446D01*
X018780Y002606D01*
X018860Y002686D01*
X019020Y002170D02*
X019020Y001850D01*
X017500Y001250D02*
X017500Y000750D01*
X017250Y000500D01*
X016750Y000500D01*
X016500Y000750D01*
X016250Y000500D01*
X015750Y000500D01*
X015500Y000750D01*
X015250Y000500D01*
X014750Y000500D01*
X014500Y000750D01*
X014250Y000500D01*
X013750Y000500D01*
X013500Y000750D01*
X013250Y000500D01*
X012750Y000500D01*
X012500Y000750D01*
X012250Y000500D01*
X011750Y000500D01*
X011500Y000750D01*
X011500Y001250D01*
X011750Y001500D01*
X012250Y001500D01*
X012500Y001250D01*
X012750Y001500D01*
X013250Y001500D01*
X013500Y001250D01*
X013750Y001500D01*
X014250Y001500D01*
X014500Y001250D01*
X014750Y001500D01*
X015250Y001500D01*
X015500Y001250D01*
X015750Y001500D01*
X016250Y001500D01*
X016500Y001250D01*
X016750Y001500D01*
X017250Y001500D01*
X017500Y001250D01*
X022780Y002010D02*
X022940Y001850D01*
X023260Y001850D01*
X023020Y001850D02*
X023020Y002170D01*
X022940Y002170D02*
X023260Y002170D01*
X022940Y002170D02*
X022780Y002010D01*
X029780Y002961D02*
X029780Y003121D01*
X029860Y003202D01*
X030180Y002881D01*
X030260Y002961D01*
X030260Y003121D01*
X030180Y003202D01*
X029860Y003202D01*
X029780Y002961D02*
X029860Y002881D01*
X030180Y002881D01*
X030780Y003041D02*
X031260Y003041D01*
X031260Y002881D02*
X031260Y003202D01*
X030940Y002881D02*
X030780Y003041D01*
X031780Y002961D02*
X031860Y002881D01*
X031780Y002961D02*
X031780Y003121D01*
X031860Y003202D01*
X031940Y003202D01*
X032260Y002881D01*
X032260Y003202D01*
X032780Y003121D02*
X032780Y002961D01*
X032860Y002881D01*
X033020Y003041D02*
X033020Y003121D01*
X033100Y003202D01*
X033180Y003202D01*
X033260Y003121D01*
X033260Y002961D01*
X033180Y002881D01*
X033020Y003121D02*
X032940Y003202D01*
X032860Y003202D01*
X032780Y003121D01*
X033780Y003121D02*
X034020Y002881D01*
X034020Y003202D01*
X034260Y003121D02*
X033780Y003121D01*
X035500Y003250D02*
X035500Y002750D01*
X035750Y002500D01*
X037250Y002500D01*
X037500Y002750D01*
X037500Y003250D01*
X037250Y003500D01*
X035750Y003500D01*
X035500Y003250D01*
X037790Y003830D02*
X037870Y003750D01*
X038030Y003750D01*
X038110Y003830D01*
X038110Y003990D01*
X038030Y004070D01*
X037950Y004070D01*
X037790Y003990D01*
X037790Y004230D01*
X038110Y004230D01*
X038306Y004150D02*
X038386Y004230D01*
X038546Y004230D01*
X038626Y004150D01*
X038626Y004070D01*
X038546Y003990D01*
X038626Y003910D01*
X038626Y003830D01*
X038546Y003750D01*
X038386Y003750D01*
X038306Y003830D01*
X038466Y003990D02*
X038546Y003990D01*
X038626Y004750D02*
X038306Y004750D01*
X038466Y004750D02*
X038466Y005230D01*
X038306Y005070D01*
X038110Y004990D02*
X038110Y004830D01*
X038030Y004750D01*
X037870Y004750D01*
X037790Y004830D01*
X037790Y004990D02*
X037950Y005070D01*
X038030Y005070D01*
X038110Y004990D01*
X038110Y005230D02*
X037790Y005230D01*
X037790Y004990D01*
X038030Y005750D02*
X038030Y006230D01*
X037790Y005990D01*
X038110Y005990D01*
X038306Y006070D02*
X038386Y005990D01*
X038626Y005990D01*
X038626Y005830D02*
X038626Y006150D01*
X038546Y006230D01*
X038386Y006230D01*
X038306Y006150D01*
X038306Y006070D01*
X038306Y005830D02*
X038386Y005750D01*
X038546Y005750D01*
X038626Y005830D01*
X038306Y006750D02*
X038306Y006830D01*
X038626Y007150D01*
X038626Y007230D01*
X038306Y007230D01*
X038030Y007230D02*
X037790Y006990D01*
X038110Y006990D01*
X038030Y006750D02*
X038030Y007230D01*
X038030Y007750D02*
X038030Y008230D01*
X037790Y007990D01*
X038110Y007990D01*
X038306Y007990D02*
X038466Y008070D01*
X038546Y008070D01*
X038626Y007990D01*
X038626Y007830D01*
X038546Y007750D01*
X038386Y007750D01*
X038306Y007830D01*
X038306Y007990D02*
X038306Y008230D01*
X038626Y008230D01*
X038546Y008750D02*
X038386Y008750D01*
X038306Y008830D01*
X038466Y008990D02*
X038546Y008990D01*
X038626Y008910D01*
X038626Y008830D01*
X038546Y008750D01*
X038546Y008990D02*
X038626Y009070D01*
X038626Y009150D01*
X038546Y009230D01*
X038386Y009230D01*
X038306Y009150D01*
X038110Y008990D02*
X037790Y008990D01*
X038030Y009230D01*
X038030Y008750D01*
X038030Y009750D02*
X038030Y010230D01*
X037790Y009990D01*
X038110Y009990D01*
X038306Y010070D02*
X038466Y010230D01*
X038466Y009750D01*
X038306Y009750D02*
X038626Y009750D01*
X038546Y010750D02*
X038626Y010830D01*
X038626Y011150D01*
X038546Y011230D01*
X038386Y011230D01*
X038306Y011150D01*
X038306Y011070D01*
X038386Y010990D01*
X038626Y010990D01*
X038546Y010750D02*
X038386Y010750D01*
X038306Y010830D01*
X038110Y010830D02*
X038030Y010750D01*
X037870Y010750D01*
X037790Y010830D01*
X037950Y010990D02*
X038030Y010990D01*
X038110Y010910D01*
X038110Y010830D01*
X038030Y010990D02*
X038110Y011070D01*
X038110Y011150D01*
X038030Y011230D01*
X037870Y011230D01*
X037790Y011150D01*
X037870Y011750D02*
X037790Y011830D01*
X037870Y011750D02*
X038030Y011750D01*
X038110Y011830D01*
X038110Y011910D01*
X038030Y011990D01*
X037950Y011990D01*
X038030Y011990D02*
X038110Y012070D01*
X038110Y012150D01*
X038030Y012230D01*
X037870Y012230D01*
X037790Y012150D01*
X038306Y012230D02*
X038626Y012230D01*
X038626Y012150D01*
X038306Y011830D01*
X038306Y011750D01*
X038386Y012750D02*
X038306Y012830D01*
X038386Y012750D02*
X038546Y012750D01*
X038626Y012830D01*
X038626Y012990D01*
X038546Y013070D01*
X038466Y013070D01*
X038306Y012990D01*
X038306Y013230D01*
X038626Y013230D01*
X038110Y013150D02*
X038110Y013070D01*
X038030Y012990D01*
X038110Y012910D01*
X038110Y012830D01*
X038030Y012750D01*
X037870Y012750D01*
X037790Y012830D01*
X037950Y012990D02*
X038030Y012990D01*
X038110Y013150D02*
X038030Y013230D01*
X037870Y013230D01*
X037790Y013150D01*
X037870Y013750D02*
X037790Y013830D01*
X037870Y013750D02*
X038030Y013750D01*
X038110Y013830D01*
X038110Y013910D01*
X038030Y013990D01*
X037950Y013990D01*
X038030Y013990D02*
X038110Y014070D01*
X038110Y014150D01*
X038030Y014230D01*
X037870Y014230D01*
X037790Y014150D01*
X038306Y014150D02*
X038386Y014230D01*
X038546Y014230D01*
X038626Y014150D01*
X038626Y014070D01*
X038546Y013990D01*
X038626Y013910D01*
X038626Y013830D01*
X038546Y013750D01*
X038386Y013750D01*
X038306Y013830D01*
X038466Y013990D02*
X038546Y013990D01*
X038626Y014750D02*
X038306Y014750D01*
X038466Y014750D02*
X038466Y015230D01*
X038306Y015070D01*
X038110Y015070D02*
X038030Y014990D01*
X038110Y014910D01*
X038110Y014830D01*
X038030Y014750D01*
X037870Y014750D01*
X037790Y014830D01*
X037950Y014990D02*
X038030Y014990D01*
X038110Y015070D02*
X038110Y015150D01*
X038030Y015230D01*
X037870Y015230D01*
X037790Y015150D01*
X037250Y019500D02*
X035750Y019500D01*
X035500Y019750D01*
X035500Y020250D01*
X035750Y020500D01*
X037250Y020500D01*
X037500Y020250D01*
X037500Y019750D01*
X037250Y019500D01*
D14*
X037000Y020520D02*
X037000Y020780D01*
X036000Y020780D01*
X035700Y020780D01*
X036000Y020780D02*
X036000Y020530D01*
X033760Y019150D02*
X033760Y016370D01*
X032960Y015570D01*
X032960Y004500D01*
X032950Y004160D02*
X033620Y003490D01*
X038690Y003490D01*
X038680Y002500D02*
X037500Y002500D01*
X037000Y002480D02*
X037000Y002180D01*
X036000Y002180D01*
X036000Y002470D01*
X032950Y004160D02*
X018650Y004160D01*
X017350Y004160D02*
X011650Y004160D01*
X022600Y015650D02*
X032650Y015650D01*
X022400Y016950D02*
X010050Y016950D01*
D15*
X010545Y017295D02*
X010545Y017805D01*
X010800Y017805D01*
X010885Y017720D01*
X010885Y017550D01*
X010800Y017465D01*
X010545Y017465D01*
X011097Y017295D02*
X011268Y017465D01*
X011438Y017295D01*
X011438Y017805D01*
X011650Y017805D02*
X011820Y017635D01*
X011990Y017805D01*
X011990Y017295D01*
X011650Y017295D02*
X011650Y017805D01*
X011097Y017805D02*
X011097Y017295D01*
X022845Y016320D02*
X022845Y015980D01*
X022930Y015895D01*
X023100Y015895D01*
X023185Y015980D01*
X023397Y015980D02*
X023483Y015895D01*
X023653Y015895D01*
X023738Y015980D01*
X023738Y016320D01*
X023653Y016405D01*
X023483Y016405D01*
X023397Y016320D01*
X023397Y015980D01*
X023185Y016320D02*
X023100Y016405D01*
X022930Y016405D01*
X022845Y016320D01*
X023950Y016405D02*
X023950Y015895D01*
X024290Y015895D02*
X024290Y016405D01*
X024120Y016235D01*
X023950Y016405D01*
X024502Y016405D02*
X024673Y016235D01*
X024843Y016405D01*
X024843Y015895D01*
X025055Y015980D02*
X025140Y015895D01*
X025310Y015895D01*
X025395Y015980D01*
X025395Y016405D01*
X025607Y016405D02*
X025948Y015895D01*
X025948Y016405D01*
X026160Y016405D02*
X026330Y016405D01*
X026245Y016405D02*
X026245Y015895D01*
X026160Y015895D02*
X026330Y015895D01*
X026528Y015980D02*
X026613Y015895D01*
X026783Y015895D01*
X026868Y015980D01*
X027081Y015895D02*
X027081Y016235D01*
X027251Y016405D01*
X027421Y016235D01*
X027421Y015895D01*
X027421Y016150D02*
X027081Y016150D01*
X026868Y016320D02*
X026783Y016405D01*
X026613Y016405D01*
X026528Y016320D01*
X026528Y015980D01*
X025607Y015895D02*
X025607Y016405D01*
X025055Y016405D02*
X025055Y015980D01*
X024502Y015895D02*
X024502Y016405D01*
X027633Y016405D02*
X027973Y016405D01*
X027803Y016405D02*
X027803Y015895D01*
X028186Y015895D02*
X028356Y015895D01*
X028271Y015895D02*
X028271Y016405D01*
X028186Y016405D02*
X028356Y016405D01*
X028554Y016320D02*
X028639Y016405D01*
X028809Y016405D01*
X028894Y016320D01*
X028894Y015980D01*
X028809Y015895D01*
X028639Y015895D01*
X028554Y015980D01*
X028554Y016320D01*
X029106Y016405D02*
X029447Y015895D01*
X029447Y016405D01*
X029106Y016405D02*
X029106Y015895D01*
X033805Y007932D02*
X033805Y007592D01*
X033295Y007592D01*
X033465Y007379D02*
X033805Y007379D01*
X033550Y007379D02*
X033550Y007039D01*
X033465Y007039D02*
X033805Y007039D01*
X033465Y007039D02*
X033295Y007209D01*
X033465Y007379D01*
X033295Y006827D02*
X033295Y006487D01*
X033295Y006657D02*
X033805Y006657D01*
X033805Y006288D02*
X033805Y006118D01*
X033805Y006203D02*
X033295Y006203D01*
X033295Y006118D02*
X033295Y006288D01*
X033380Y005906D02*
X033295Y005821D01*
X033295Y005651D01*
X033380Y005566D01*
X033720Y005566D01*
X033805Y005651D01*
X033805Y005821D01*
X033720Y005906D01*
X033550Y005906D01*
X033550Y005736D01*
X033805Y005368D02*
X033805Y005197D01*
X033805Y005283D02*
X033295Y005283D01*
X033295Y005368D02*
X033295Y005197D01*
X033380Y004985D02*
X033295Y004900D01*
X033295Y004645D01*
X033805Y004645D01*
X033805Y004900D01*
X033720Y004985D01*
X033380Y004985D01*
X023721Y003755D02*
X023721Y003245D01*
X023381Y003755D01*
X023381Y003245D01*
X023182Y003245D02*
X023012Y003245D01*
X023097Y003245D02*
X023097Y003755D01*
X023012Y003755D02*
X023182Y003755D01*
X022248Y003670D02*
X022163Y003755D01*
X021992Y003755D01*
X021907Y003670D01*
X021907Y003330D01*
X021992Y003245D01*
X022163Y003245D01*
X022248Y003330D01*
X022248Y003500D01*
X022078Y003500D01*
X021695Y003330D02*
X021695Y003670D01*
X021610Y003755D01*
X021440Y003755D01*
X021355Y003670D01*
X021355Y003330D01*
X021440Y003245D01*
X021610Y003245D01*
X021695Y003330D01*
X021143Y003245D02*
X020802Y003245D01*
X020802Y003755D01*
X020590Y003585D02*
X020420Y003755D01*
X020250Y003585D01*
X020250Y003245D01*
X020038Y003245D02*
X020038Y003755D01*
X020250Y003500D02*
X020590Y003500D01*
X020590Y003585D02*
X020590Y003245D01*
X020038Y003245D02*
X019697Y003755D01*
X019697Y003245D01*
X019485Y003245D02*
X019485Y003585D01*
X019315Y003755D01*
X019145Y003585D01*
X019145Y003245D01*
X019145Y003500D02*
X019485Y003500D01*
X017195Y003500D02*
X017110Y003415D01*
X016855Y003415D01*
X016855Y003245D02*
X016855Y003755D01*
X017110Y003755D01*
X017195Y003670D01*
X017195Y003500D01*
X017025Y003415D02*
X017195Y003245D01*
X016643Y003245D02*
X016302Y003245D01*
X016302Y003755D01*
X016643Y003755D01*
X016473Y003500D02*
X016302Y003500D01*
X016090Y003245D02*
X016090Y003755D01*
X015750Y003755D02*
X015750Y003245D01*
X015920Y003415D01*
X016090Y003245D01*
X015538Y003330D02*
X015538Y003670D01*
X015453Y003755D01*
X015283Y003755D01*
X015197Y003670D01*
X015197Y003330D01*
X015283Y003245D01*
X015453Y003245D01*
X015538Y003330D01*
X014985Y003500D02*
X014900Y003415D01*
X014645Y003415D01*
X014645Y003245D02*
X014645Y003755D01*
X014900Y003755D01*
X014985Y003670D01*
X014985Y003500D01*
D16*
X009975Y002865D02*
X009975Y002565D01*
X009675Y002865D01*
X009600Y002865D01*
X009525Y002790D01*
X009525Y002640D01*
X009600Y002565D01*
X009600Y002404D02*
X009525Y002329D01*
X009525Y002179D01*
X009600Y002104D01*
X009900Y002104D01*
X009975Y002179D01*
X009975Y002329D01*
X009900Y002404D01*
X009750Y002404D01*
X009750Y002254D01*
X035025Y020575D02*
X035075Y020525D01*
X035175Y020525D01*
X035225Y020575D01*
X035225Y020675D01*
X035175Y020725D01*
X035125Y020725D01*
X035025Y020675D01*
X035025Y020825D01*
X035225Y020825D01*
X035347Y020825D02*
X035347Y020625D01*
X035447Y020525D01*
X035547Y020625D01*
X035547Y020825D01*
M02*
