G75*
%MOIN*%
%OFA0B0*%
%FSLAX24Y24*%
%IPPOS*%
%LPD*%
%AMOC8*
5,1,8,0,0,1.08239X$1,22.5*
%
%ADD10C,0.0709*%
%ADD11C,0.0740*%
%ADD12OC8,0.0740*%
%ADD13OC8,0.1772*%
D10*
X012000Y003146D02*
X012000Y003854D01*
X013000Y003854D02*
X013000Y003146D01*
X014000Y003146D02*
X014000Y003854D01*
X015000Y003854D02*
X015000Y003146D01*
X021000Y003146D02*
X021000Y003854D01*
X022000Y003854D02*
X022000Y003146D01*
X023000Y003146D02*
X023000Y003854D01*
X024000Y003854D02*
X024000Y003146D01*
X033146Y008000D02*
X033854Y008000D01*
X033854Y009000D02*
X033146Y009000D01*
X033146Y010000D02*
X033854Y010000D01*
X033854Y011000D02*
X033146Y011000D01*
X033146Y012000D02*
X033854Y012000D01*
X033854Y013000D02*
X033146Y013000D01*
X033146Y014000D02*
X033854Y014000D01*
X033854Y015000D02*
X033146Y015000D01*
X033146Y016000D02*
X033854Y016000D01*
X033854Y017000D02*
X033146Y017000D01*
X033146Y018000D02*
X033854Y018000D01*
X033854Y019000D02*
X033146Y019000D01*
X039146Y019000D02*
X039854Y019000D01*
X039854Y020000D02*
X039146Y020000D01*
X039146Y017500D02*
X039854Y017500D01*
X039854Y016500D02*
X039146Y016500D01*
X039146Y015000D02*
X039854Y015000D01*
X039854Y014000D02*
X039146Y014000D01*
X039146Y013000D02*
X039854Y013000D01*
X039854Y012000D02*
X039146Y012000D01*
X039146Y011000D02*
X039854Y011000D01*
X039854Y010000D02*
X039146Y010000D01*
X039146Y009000D02*
X039854Y009000D01*
X039854Y008000D02*
X039146Y008000D01*
X022000Y017146D02*
X022000Y017854D01*
X021000Y017854D02*
X021000Y017146D01*
X020000Y017146D02*
X020000Y017854D01*
X019000Y017854D02*
X019000Y017146D01*
X008354Y011000D02*
X007646Y011000D01*
X007646Y010000D02*
X008354Y010000D01*
X008354Y009000D02*
X007646Y009000D01*
X007646Y008000D02*
X008354Y008000D01*
X008354Y007000D02*
X007646Y007000D01*
X007646Y006000D02*
X008354Y006000D01*
D11*
X012000Y001000D03*
X013000Y001000D03*
X014000Y001000D03*
X015000Y001000D03*
X016000Y001000D03*
X017000Y001000D03*
X019000Y001000D03*
X020000Y001000D03*
X021000Y001000D03*
X022000Y001000D03*
X023000Y001000D03*
X024000Y001000D03*
X025000Y001000D03*
X026000Y001000D03*
X028000Y001000D03*
X029000Y001000D03*
X030000Y001000D03*
X031000Y001000D03*
X032000Y001000D03*
X033000Y001000D03*
X034000Y001000D03*
X035000Y001000D03*
X036000Y003000D03*
X037000Y003000D03*
X037000Y020000D03*
X036000Y020000D03*
X033000Y020000D03*
X032000Y020000D03*
X031000Y020000D03*
X030000Y020000D03*
X029000Y020000D03*
X028000Y020000D03*
X027000Y020000D03*
X026000Y020000D03*
X024000Y020000D03*
X023000Y020000D03*
X022000Y020000D03*
X021000Y020000D03*
X020000Y020000D03*
X019000Y020000D03*
X018000Y020000D03*
X017000Y020000D03*
X015400Y020000D03*
X014400Y020000D03*
X013400Y020000D03*
X012400Y020000D03*
X011400Y020000D03*
X010400Y020000D03*
X009400Y020000D03*
X008400Y020000D03*
D12*
X036000Y019000D03*
X037000Y019000D03*
X037000Y018000D03*
X036000Y018000D03*
X036000Y017000D03*
X037000Y017000D03*
X037000Y016000D03*
X036000Y016000D03*
X036000Y015000D03*
X037000Y015000D03*
X037000Y014000D03*
X036000Y014000D03*
X036000Y013000D03*
X037000Y013000D03*
X037000Y012000D03*
X036000Y012000D03*
X036000Y011000D03*
X037000Y011000D03*
X037000Y010000D03*
X036000Y010000D03*
X036000Y009000D03*
X037000Y009000D03*
X037000Y008000D03*
X036000Y008000D03*
X036000Y007000D03*
X037000Y007000D03*
X037000Y006000D03*
X036000Y006000D03*
X036000Y005000D03*
X037000Y005000D03*
X037000Y004000D03*
X036000Y004000D03*
D13*
X008000Y000000D03*
X008000Y003000D03*
M02*
